<?xml version="1.0" encoding="UTF-8"?>
<!DOCTYPE svg PUBLIC "-//W3C//DTD SVG 1.1//EN" "http://www.w3.org/Graphics/SVG/1.1/DTD/svg11.dtd">
<svg xmlns="http://www.w3.org/2000/svg" width="1200" height="1000" style="background-color:#36383b">
    <desc></desc>
    
    <g>
        <line x1="10%" y1="70%" x2="85%" y2="70%" style="stroke:white;stroke-width:2" /> <!--x axis -->
        
        <text x="9.5%" y="73%" font-size="15" fill="white">0</text>
        <text x="14.3%" y="73%" font-size="15" fill="white">10</text>
        <text x="19.5%" y="73%" font-size="15" fill="white">20</text>
        <text x="24.6%" y="73%" font-size="15" fill="white">30</text>
        <text x="29.6%" y="73%" font-size="15" fill="white">40</text>
        <text x="34.5%" y="73%" font-size="15" fill="white">50</text>
        <text x="39.5%" y="73%" font-size="15" fill="white">60</text>
        <text x="45%" y="73%" font-size="15" fill="white">70</text>
        <text x="50%" y="73%" font-size="15" fill="white">80</text>
        <text x="55%" y="73%" font-size="15" fill="white">90</text>
        <text x="60%" y="73%" font-size="15" fill="white">100</text>
        <text x="65%" y="73%" font-size="15" fill="white">110</text>
        <text x="70%" y="73%" font-size="15" fill="white">120</text>
        <text x="75%" y="73%" font-size="15" fill="white">130</text>
        <text x="80.5%" y="73%" font-size="15" fill="white">140</text>
        
        <text x="32%" y="6%" font-size="35" fill="white">Lyrical References</text>
        
        
        <line x1="85%" y1="70.1%" x2="85%" y2="9.99%" style="stroke:white;stroke-width:2"/>
        <line x1="81.5%" y1="70.1%" x2="81.5%" y2="10%" style="stroke:white;stroke-width:2"/>
        <line x1="76.3%" y1="70.1%" x2="76.3%" y2="10%" style="stroke:white;stroke-width:2"/>
        <line x1="71.1%" y1="70.1%" x2="71.1%" y2="10%" style="stroke:white;stroke-width:2"/>
        <line x1="65.9%" y1="70.1%" x2="65.9%" y2="10%" style="stroke:white;stroke-width:2"/>
        <line x1="60.7%" y1="70.1%" x2="60.7%" y2="10%" style="stroke:white;stroke-width:2"/>
        <line x1="55.5%" y1="70.1%" x2="55.5%" y2="10%" style="stroke:white;stroke-width:2"/>
        <line x1="50.3%" y1="70.1%" x2="50.3%" y2="10%" style="stroke:white;stroke-width:2"/>
        <line x1="45.1%" y1="70.1%" x2="45.1%" y2="10%" style="stroke:white;stroke-width:2"/>
        <line x1="40.1%" y1="70.1%" x2="40.1%" y2="10%" style="stroke:white;stroke-width:2"/>
        <line x1="35.1%" y1="70.1%" x2="35.1%" y2="10%" style="stroke:white;stroke-width:2"/>
        <line x1="30.1%" y1="70.1%" x2="30.1%" y2="10%" style="stroke:white;stroke-width:2"/>
        <line x1="25.1%" y1="70.1%" x2="25.1%" y2="10%" style="stroke:white;stroke-width:2"/>
        <line x1="20.1%" y1="70.1%" x2="20.1%" y2="10%" style="stroke:white;stroke-width:2"/>
        <line x1="14.9%" y1="70.1%" x2="14.9%" y2="10%" style="stroke:white;stroke-width:2"/>
        <line x1="10%" y1="70.15%" x2="9.9%" y2="10%" style="stroke:white;stroke-width:2"/>
        
        <line x1="9.9%" y1="10%" x2="85%" y2="10%" style="stroke:white;stroke-width:2" /><!--y axis -->
        <line x1="9%" y1="15%" x2="10%" y2="15%" style="stroke:white;stroke-width:2"/><text x="4%" y="15.65%" font-size="18" fill="white">Water</text>
        <line x1="10%" y1="15%" x2="12.5%" y2="15%" style="stroke:#038c53;stroke-width:35"/>
        <line x1="12.5%" y1="15%" x2="20.1%" y2="15%" style="stroke:#8512de;stroke-width:35"/>
        <line x1="20.1%" y1="15%" x2="22.8%" y2="15%" style="stroke:#c71400;stroke-width:35"/>
        <line x1="22.8%" y1="15%" x2="29.7%" y2="15%" style="stroke:#deae12;stroke-width:35"/>
        <line x1="29.7%" y1="15%" x2="40.9%" y2="15%" style="stroke:#0077c7;stroke-width:35"/>
        
        
        
        
        
        <line x1="9%" y1="25%" x2="10%" y2="25%" style="stroke:white;stroke-width:2"/><text x="2%" y="25.65%" font-size="15" fill="white">Bed/Sleep</text>
        <line x1="10%" y1="25%" x2="13.85%" y2="25%" style="stroke:#038c53;stroke-width:35"/>
        <line x1="13.85%" y1="25%" x2="17.7%" y2="25%" style="stroke:#8512de;stroke-width:35"/>
        <line x1="17.7%" y1="25%" x2="21.9%" y2="25%" style="stroke:#c71400;stroke-width:35"/>
        <line x1="21.9%" y1="25%" x2="33.8%" y2="25%" style="stroke:#deae12;stroke-width:35"/>
        <line x1="33.8%" y1="25%" x2="35.9%" y2="25%" style="stroke:#0077c7;stroke-width:35"/>
        
        <line x1="9%" y1="35%" x2="10%" y2="35%" style="stroke:white;stroke-width:2"/><text x="3%" y="33.65%" font-size="15" fill="white">Alcohol/</text><text x="4%" y="36.65%" font-size="15" fill="white">Drugs</text>
        <line x1="10%" y1="35%" x2="15%" y2="35%" style="stroke:#038c53;stroke-width:35"/>
        <line x1="15%" y1="35%" x2="17.2%" y2="35%" style="stroke:#8512de;stroke-width:35"/>
        <line x1="17.2%" y1="35%" x2="17.8%" y2="35%" style="stroke:#c71400;stroke-width:35"/>
        <line x1="17.8%" y1="35%" x2="18.9%" y2="35%" style="stroke:#deae12;stroke-width:35"/>
        <line x1="18.9%" y1="35%" x2="22.5%" y2="35%" style="stroke:#0077c7;stroke-width:35"/>
        
        <line x1="9%" y1="45%" x2="10%" y2="45%" style="stroke:white;stroke-width:2"/><text x="4%" y="45.70%" font-size="17" fill="white">Death</text>
        <line x1="10%" y1="45%" x2="17.7%" y2="45%" style="stroke:#038c53;stroke-width:35"/>
        <line x1="17.7%" y1="45%" x2="20%" y2="45%" style="stroke:#8512de;stroke-width:35"/>
        <line x1="20%" y1="45%" x2="24%" y2="45%" style="stroke:#c71400;stroke-width:35"/>
        <line x1="24%" y1="45%" x2="31.7%" y2="45%" style="stroke:#deae12;stroke-width:35"/>
        <line x1="31.7%" y1="45%" x2="43.98%" y2="45%" style="stroke:#0077c7;stroke-width:35"/>
        
        <line x1="9%" y1="55%" x2="10%" y2="55%" style="stroke:white;stroke-width:2"/><text x="3%" y="55.65%" font-size="16" fill="white">Religion</text>
        <line x1="10%" y1="55%" x2="14%" y2="55%" style="stroke:#038c53;stroke-width:35"/>
        <line x1="14%" y1="55%" x2="16%" y2="55%" style="stroke:#8512de;stroke-width:35"/>
        <line x1="16%" y1="55%" x2="21%" y2="55%" style="stroke:#c71400;stroke-width:35"/>
        <line x1="21%" y1="55%" x2="40%" y2="55%" style="stroke:#deae12;stroke-width:35"/>
        <line x1="40%" y1="55%" x2="75%" y2="55%" style="stroke:#0077c7;stroke-width:35"/>
        
        <line x1="9%" y1="65%" x2="10%" y2="65%" style="stroke:white;stroke-width:2"/><text x="5.5%" y="65.65%" font-size="18" fill="white">Fire</text>
        <line x1="10%" y1="65%" x2="11%" y2="65%" style="stroke:#038c53;stroke-width:35"/>
        <line x1="11%" y1="65%" x2="13%" y2="65%" style="stroke:#8512de;stroke-width:35"/>
        <line x1="13%" y1="65%" x2="21%" y2="65%" style="stroke:#deae12;stroke-width:35"/>
        <line x1="21%" y1="65%" x2="23%" y2="65%" style="stroke:#0077c7;stroke-width:35"/>
        
    </g>
    <g>
        <rect width="300" height="250" x="50%" y="12%" fill="black"/><text x="54%" y="15%" stroke="#038c53" font-size="25" fill="#038c53">Your Favorite Weapon</text>
        <text x="57%" y="18.9%" stroke="#8512de" font-size="30" fill="#8512de">Deja Entendu</text></g>
    <text x="55%" y="23%" stroke="#c71400" font-size="25" fill="#c71400">The Devil And God</text>
    <text x="54%" y="26%" stroke="#c71400" font-size="25" fill="#c71400">Are Raging Inside Me</text>
    <text x="61.5%" y="30.5%" stroke="#deae12" font-size="30" fill="#deae12">Daisy</text>
    <text x="56%" y="35%" font-size="30" stroke="#0077c7" fill="#0077c7">Science Fiction</text>
</svg>