<?xml version="1.0" encoding="UTF-8"?>
<!DOCTYPE svg PUBLIC "-//W3C//DTD SVG 1.1//EN" "http://www.w3.org/Graphics/SVG/1.1/DTD/svg11.dtd">
<svg xmlns="http://www.w3.org/2000/svg" width="1000" height="1000" style="background-color:rgb(192,192,192)">
    <desc></desc>
    
    <g>
        <line x1="10%" y1="70%" x2="85%" y2="70%" style="stroke:black;stroke-width:2" /> <!--x axis -->
        
        <text x="9.5%" y="73%" font-size="15">0</text>
        <text x="14.3%" y="73%" font-size="15">10</text>
        <text x="19.5%" y="73%" font-size="15">20</text>
        <text x="24.6%" y="73%" font-size="15">30</text>
        <text x="29.6%" y="73%" font-size="15">40</text>
        <text x="34.5%" y="73%" font-size="15">50</text>
        <text x="39.5%" y="73%" font-size="15">60</text>
        <text x="45%" y="73%" font-size="15">70</text>
        <text x="50%" y="73%" font-size="15">80</text>
        <text x="55%" y="73%" font-size="15">90</text>
        <text x="60%" y="73%" font-size="15">100</text>
        <text x="65%" y="73%" font-size="15">110</text>
        <text x="70%" y="73%" font-size="15">120</text>
        <text x="75%" y="73%" font-size="15">130</text>
        <text x="80.5%" y="73%" font-size="15">140</text>
        
        <text x="41%" y="8%">Lyrical References</text>
        
        
        <line x1="85%" y1="70.1%" x2="85%" y2="9.99%" style="stroke:black;stroke-width:2"/>
        <line x1="81.5%" y1="70.1%" x2="81.5%" y2="10%" style="stroke:black;stroke-width:2"/>
        <line x1="76.3%" y1="70.1%" x2="76.3%" y2="10%" style="stroke:black;stroke-width:2"/>
        <line x1="71.1%" y1="70.1%" x2="71.1%" y2="10%" style="stroke:black;stroke-width:2"/>
        <line x1="65.9%" y1="70.1%" x2="65.9%" y2="10%" style="stroke:black;stroke-width:2"/>
        <line x1="60.7%" y1="70.1%" x2="60.7%" y2="10%" style="stroke:black;stroke-width:2"/>
        <line x1="55.5%" y1="70.1%" x2="55.5%" y2="10%" style="stroke:black;stroke-width:2"/>
        <line x1="50.3%" y1="70.1%" x2="50.3%" y2="10%" style="stroke:black;stroke-width:2"/>
        <line x1="45.1%" y1="70.1%" x2="45.1%" y2="10%" style="stroke:black;stroke-width:2"/>
        <line x1="40.1%" y1="70.1%" x2="40.1%" y2="10%" style="stroke:black;stroke-width:2"/>
        <line x1="35.1%" y1="70.1%" x2="35.1%" y2="10%" style="stroke:black;stroke-width:2"/>
        <line x1="30.1%" y1="70.1%" x2="30.1%" y2="10%" style="stroke:black;stroke-width:2"/>
        <line x1="25.1%" y1="70.1%" x2="25.1%" y2="10%" style="stroke:black;stroke-width:2"/>
        <line x1="20.1%" y1="70.1%" x2="20.1%" y2="10%" style="stroke:black;stroke-width:2"/>
        <line x1="14.9%" y1="70.1%" x2="14.9%" y2="10%" style="stroke:black;stroke-width:2"/>
        <line x1="10%" y1="70.15%" x2="9.9%" y2="10%" style="stroke:black;stroke-width:2"/>
        
        <line x1="9.9%" y1="10%" x2="85%" y2="10%" style="stroke:black;stroke-width:2" /><!--y axis -->
        <line x1="9%" y1="15%" x2="10%" y2="15%" style="stroke:black;stroke-width:2"/><text x="4%" y="15.65%" font-size="18">Water</text>
        <line x1="10%" y1="15%" x2="12.5%" y2="15%" style="stroke:green;stroke-width:35"/>
        <line x1="12.5%" y1="15%" x2="20.1%" y2="15%" style="stroke:blue;stroke-width:35"/>
        <line x1="20.1%" y1="15%" x2="22.8%" y2="15%" style="stroke:purple;stroke-width:35"/>
        <line x1="22.8%" y1="15%" x2="29.7%" y2="15%" style="stroke:yellow;stroke-width:35"/>
        <line x1="29.7%" y1="15%" x2="40.9%" y2="15%" style="stroke:red;stroke-width:35"/>
        
        
        
        
        
        <line x1="9%" y1="25%" x2="10%" y2="25%" style="stroke:black;stroke-width:2"/><text x="2%" y="25.65%" font-size="15">Bed/Sleep</text>
        <line x1="10%" y1="25%" x2="13.85%" y2="25%" style="stroke:green;stroke-width:35"/>
        <line x1="13.85%" y1="25%" x2="17.7%" y2="25%" style="stroke:blue;stroke-width:35"/>
        <line x1="17.7%" y1="25%" x2="21.9%" y2="25%" style="stroke:purple;stroke-width:35"/>
        <line x1="21.9%" y1="25%" x2="33.8%" y2="25%" style="stroke:yellow;stroke-width:35"/>
        <line x1="33.8%" y1="25%" x2="35.9%" y2="25%" style="stroke:red;stroke-width:35"/>
        
        <line x1="9%" y1="35%" x2="10%" y2="35%" style="stroke:black;stroke-width:2"/><text x="3%" y="33.65%" font-size="15">Alcohol/</text><text x="4%" y="36.65%" font-size="15">Drugs</text>
        <line x1="10%" y1="35%" x2="15%" y2="35%" style="stroke:green;stroke-width:35"/>
        <line x1="15%" y1="35%" x2="17.2%" y2="35%" style="stroke:blue;stroke-width:35"/>
        <line x1="17.2%" y1="35%" x2="17.8%" y2="35%" style="stroke:purple;stroke-width:35"/>
        <line x1="17.8%" y1="35%" x2="18.9%" y2="35%" style="stroke:yellow;stroke-width:35"/>
        <line x1="18.9%" y1="35%" x2="22.5%" y2="35%" style="stroke:red;stroke-width:35"/>
        
        <line x1="9%" y1="45%" x2="10%" y2="45%" style="stroke:black;stroke-width:2"/><text x="4%" y="45.70%" font-size="17">Death</text>
        <line x1="10%" y1="45%" x2="17.7%" y2="45%" style="stroke:green;stroke-width:35"/>
        <line x1="17.7%" y1="45%" x2="20%" y2="45%" style="stroke:blue;stroke-width:35"/>
        <line x1="20%" y1="45%" x2="24%" y2="45%" style="stroke:purple;stroke-width:35"/>
        <line x1="24%" y1="45%" x2="31.7%" y2="45%" style="stroke:yellow;stroke-width:35"/>
        <line x1="31.7%" y1="45%" x2="43.98%" y2="45%" style="stroke:red;stroke-width:35"/>
        
        <line x1="9%" y1="55%" x2="10%" y2="55%" style="stroke:black;stroke-width:2"/><text x="3%" y="55.65%" font-size="16">Religion</text>
        <line x1="10%" y1="55%" x2="14%" y2="55%" style="stroke:green;stroke-width:35"/>
        <line x1="14%" y1="55%" x2="16%" y2="55%" style="stroke:blue;stroke-width:35"/>
        <line x1="16%" y1="55%" x2="21%" y2="55%" style="stroke:purple;stroke-width:35"/>
        <line x1="21%" y1="55%" x2="40%" y2="55%" style="stroke:yellow;stroke-width:35"/>
        <line x1="40%" y1="55%" x2="75%" y2="55%" style="stroke:red;stroke-width:35"/>
        
        <line x1="9%" y1="65%" x2="10%" y2="65%" style="stroke:black;stroke-width:2"/><text x="5.5%" y="65.65%" font-size="18">Fire</text>
        <line x1="10%" y1="65%" x2="11%" y2="65%" style="stroke:green;stroke-width:35"/>
        <line x1="11%" y1="65%" x2="13%" y2="65%" style="stroke:blue;stroke-width:35"/>
        <line x1="13%" y1="65%" x2="21%" y2="65%" style="stroke:yellow;stroke-width:35"/>
        <line x1="21%" y1="65%" x2="23%" y2="65%" style="stroke:red;stroke-width:35"/>
        
    </g>
    <g>
        <rect width="300" height="300" x="50%" y="12%" fill="white"/><text x="54%" y="15%" stroke="green" font-size="25" fill="green">Your Favorite Weapon</text>
        <text x="57%" y="18.9%" stroke="blue" font-size="30" fill="blue">Deja Entendu</text></g>
    <text x="55%" y="23%" stroke="purple" font-size="25" fill="purple">The Devil And God</text>
    <text x="54%" y="26%" stroke="purple" font-size="25" fill="purple">Are Raging Inside Me</text>
    <text x="61.5%" y="30.5%" stroke="Yellow" font-size="30" fill="yellow">Daisy</text>
    <text x="56%" y="35%" font-size="30" stroke="Red" fill="red">Science Fiction</text>
</svg>