<?xml version="1.0" encoding="UTF-8" standalone="no"?>
<!-- Created with Inkscape (http://www.inkscape.org/) -->

<svg
   xmlns:dc="http://purl.org/dc/elements/1.1/"
   xmlns:cc="http://creativecommons.org/ns#"
   xmlns:rdf="http://www.w3.org/1999/02/22-rdf-syntax-ns#"
   xmlns:svg="http://www.w3.org/2000/svg"
   xmlns="http://www.w3.org/2000/svg"
   xmlns:sodipodi="http://sodipodi.sourceforge.net/DTD/sodipodi-0.dtd"
   xmlns:inkscape="http://www.inkscape.org/namespaces/inkscape"
   version="1.1"
   id="svg10"
   width="6666.6665"
   height="133.33333"
   viewBox="0 0 6666.6665 133.33333"
   sodipodi:docname="nav-line.svg"
   inkscape:version="0.92.4 (5da689c313, 2019-01-14)">
  <metadata
     id="metadata16">
    <rdf:RDF>
      <cc:Work
         rdf:about="">
        <dc:format>image/svg+xml</dc:format>
        <dc:type
           rdf:resource="http://purl.org/dc/dcmitype/StillImage" />
        <dc:title></dc:title>
      </cc:Work>
    </rdf:RDF>
  </metadata>
  <defs
     id="defs14" />
  <sodipodi:namedview
     pagecolor="#ffffff"
     bordercolor="#666666"
     borderopacity="1"
     objecttolerance="10"
     gridtolerance="10"
     guidetolerance="10"
     inkscape:pageopacity="0"
     inkscape:pageshadow="2"
     inkscape:window-width="1366"
     inkscape:window-height="705"
     id="namedview12"
     showgrid="false"
     inkscape:zoom="0.18165"
     inkscape:cx="3333.3333"
     inkscape:cy="66.666664"
     inkscape:window-x="-8"
     inkscape:window-y="-8"
     inkscape:window-maximized="1"
     inkscape:current-layer="svg10" />
  <path
     style="fill:#000000;stroke-width:1.33333325"
     d="m 2551.9999,102.64274 -52.6666,-27.271888 -1176.9821,-0.0456 -1176.98208,-0.0456 -2.08154,4.98181 c -1.14484,2.73999 -3.40289,6.41914 -5.01789,8.17589 -9.85717,10.72233 -32.01555,10.72233 -41.872722,0 -9.36356,-10.1854 -9.36356,-29.46332 0,-39.64872 9.857172,-10.72234 32.015552,-10.72234 41.872722,0 3.41103,3.7104 7.06364,11.87106 7.06364,15.78153 v 2.70949 H 1323.7101 2502.0869 l 51.6729,-31.33333 c 28.42,-17.23333 52.7912,-31.3333304 54.1583,-31.3333304 2.2296,0 2.5693,1.54451 3.2996,15.0000004 0.4477,8.25 0.9569,36.45033 1.1314,62.6674 l 0.3175,47.667398 -4,-0.0166 c -2.5748,-0.0107 -22.7647,-9.73334 -56.6667,-27.28848 z M 4043.6507,82.280412 c 0.1745,-26.21707 0.6837,-54.4174 1.1315,-62.6674 0.7302,-13.4554904 1.07,-15.0000004 3.2996,-15.0000004 1.367,0 25.7382,14.1000004 54.1582,31.3333304 l 51.673,31.33333 h 1178.3767 1178.3768 v -2.70949 c 0,-3.91047 3.6527,-12.07113 7.0636,-15.78153 9.8572,-10.72234 32.0156,-10.72234 41.8728,0 4.3988,4.78486 7.0636,12.26387 7.0636,19.82436 0,16.79686 -11.1679,27.94143 -28,27.94143 -12.3648,0 -21.558,-5.77109 -25.9543,-16.29296 l -2.0814,-4.98181 H 5333.8573 4157.0839 L 4104.1283,102.613 c -33.5969,17.34126 -54.3884,27.33361 -56.8753,27.33407 l -3.9198,7.4e-4 z M 2923.9999,71.279672 v -4 h 404.6667 404.6666 v 4 4 h -404.6666 -404.6667 z"
     id="path24"
     inkscape:connector-curvature="0" />
</svg>
